<?xml version="1.0" encoding="UTF-8" standalone="no"?>
<svg width="375px" height="375px" viewBox="0 0 375 375" version="1.1" xmlns="http://www.w3.org/2000/svg" xmlns:xlink="http://www.w3.org/1999/xlink" xmlns:sketch="http://www.bohemiancoding.com/sketch/ns">
    <!-- Generator: Sketch 3.3 (11970) - http://www.bohemiancoding.com/sketch -->
    <title>Oval 9</title>
    <desc>Created with Sketch.</desc>
    <defs></defs>
    <g id="Welcome" stroke="none" stroke-width="1" fill="none" fill-rule="evenodd" sketch:type="MSPage">
        <g id="Mobile-Portrait" sketch:type="MSArtboardGroup" transform="translate(-36.000000, -326.000000)" fill="#0D93A8">
            <path d="M270.498761,607.771258 C270.025661,607.91988 269.522398,608 269.000651,608 L190.999349,608 C188.238285,608 186,605.755805 186,603 C186,602.83157 186.008339,602.665085 186.024625,602.500934 C186.008338,602.336895 186,602.17054 186,602.002259 L186,447.997741 C186,445.237565 188.244195,443 191,443 C193.761424,443 196,445.240467 196,447.997741 L196,598 L196,598 L269.000651,598 C269.521669,598 270.024071,598.079912 270.496331,598.228094 C270.969181,598.079887 271.472631,598 271.995285,598 L354.004715,598 C356.763535,598 359,600.244195 359,603 C359,605.761424 356.771415,608 354.004715,608 L271.995285,608 C271.473933,608 270.971236,607.919855 270.498761,607.771258 Z M259.499164,571 L293,571 L293,465.569111 C292.971486,465.541899 292.943216,465.514284 292.915198,465.486265 L255.428932,428 L171,428 L171,603.991289 C171,606.757524 168.755805,609 166,609 C165.656292,609 165.320683,608.96541 164.996484,608.899489 L164.996484,608.899489 C164.672579,608.96539 164.337311,609 163.99397,609 L92.0060302,609 C89.2358292,609 87,606.761424 87,604 C87,601.244195 89.2412761,599 92.0060302,599 L161,599 L161,424.008711 C161,423.838329 161.008514,423.669934 161.025137,423.503928 L161.025137,423.503928 C161.008513,423.338172 161,423.17006 161,423 C161,420.238576 163.22885,418 165.993229,418 L256.006771,418 C256.330383,418 256.646804,418.030904 256.953267,418.089913 C258.424175,417.912172 259.958034,418.386966 261.084802,419.513735 L299.977371,458.406304 L299.977371,458.406304 C301.755353,459.172637 303,460.940207 303,462.993279 L303,576.006721 C303,578.764433 300.755805,581 298,581 C297.999274,581 297.998547,581 297.997821,581 L297.997821,581 C297.997095,581 297.996368,581 297.995642,581 L259.499164,581 L219.00603,581 C216.235829,581 214,578.761424 214,576 C214,573.244195 216.241276,571 219.00603,571 L259.499164,571 Z M223.5,701 C327.053391,701 411,617.053391 411,513.5 C411,409.946609 327.053391,326 223.5,326 C119.946609,326 36,409.946609 36,513.5 C36,617.053391 119.946609,701 223.5,701 Z" id="Oval-9" sketch:type="MSShapeGroup"></path>
        </g>
    </g>
</svg>